<svg width="239" height="239" viewBox="0 0 239 239" fill="none" xmlns="http://www.w3.org/2000/svg">
<path d="M127.722 233.933C117.291 233.893 107.299 229.731 99.9236 222.356C92.5479 214.98 88.3866 204.988 88.3467 194.557C88.3467 175.929 115.607 126.407 121.059 116.563C121.793 115.47 122.785 114.574 123.947 113.955C125.109 113.335 126.405 113.011 127.722 113.011C129.039 113.011 130.336 113.335 131.498 113.955C132.66 114.574 133.652 115.47 134.386 116.563C139.838 126.407 167.098 175.929 167.098 194.557C167.058 204.988 162.897 214.98 155.521 222.356C148.145 229.731 138.153 233.893 127.722 233.933V233.933ZM127.722 136.251C116.911 154.433 108.751 174.067 103.491 194.557C103.491 200.983 106.044 207.147 110.588 211.691C115.132 216.235 121.296 218.788 127.722 218.788C134.149 218.788 140.312 216.235 144.856 211.691C149.4 207.147 151.953 200.983 151.953 194.557C146.693 174.067 138.534 154.433 127.722 136.251V136.251ZM82.2889 127.921C74.2558 127.921 66.5517 124.73 60.8714 119.05C55.1911 113.37 52 105.666 52 97.6325C52 83.851 71.6878 47.9587 75.6253 40.8408C76.3595 39.7476 77.3513 38.8517 78.5134 38.2323C79.6754 37.6129 80.9721 37.2889 82.2889 37.2889C83.6057 37.2889 84.9024 37.6129 86.0644 38.2323C87.2265 38.8517 88.2183 39.7476 88.9525 40.8408C92.89 47.9587 112.578 83.851 112.578 97.6325C112.578 105.666 109.387 113.37 103.706 119.05C98.0261 124.73 90.322 127.921 82.2889 127.921ZM82.2889 60.68C75.4982 72.2092 70.398 84.6536 67.1445 97.6325C67.1445 101.649 68.74 105.501 71.5802 108.341C74.4203 111.181 78.2723 112.777 82.2889 112.777C86.3055 112.777 90.1575 111.181 92.9976 108.341C95.8378 105.501 97.4334 101.649 97.4334 97.6325C94.1798 84.6536 89.0796 72.2092 82.2889 60.68V60.68ZM158.011 97.6325C149.978 97.6325 142.274 94.4413 136.594 88.7611C130.913 83.0808 127.722 75.3767 127.722 67.3436C127.722 53.5621 147.41 17.6698 151.348 10.5519C152.082 9.45866 153.074 8.56284 154.236 7.94342C155.398 7.32399 156.694 7 158.011 7C159.328 7 160.625 7.32399 161.787 7.94342C162.949 8.56284 163.941 9.45866 164.675 10.5519C168.612 17.6698 188.3 53.5621 188.3 67.3436C188.3 75.3767 185.109 83.0808 179.429 88.7611C173.748 94.4413 166.044 97.6325 158.011 97.6325ZM158.011 30.3911C151.22 41.9203 146.12 54.3647 142.867 67.3436C142.867 71.3601 144.462 75.2122 147.302 78.0523C150.143 80.8925 153.995 82.488 158.011 82.488C162.028 82.488 165.88 80.8925 168.72 78.0523C171.56 75.2122 173.156 71.3601 173.156 67.3436C169.902 54.3647 164.802 41.9203 158.011 30.3911V30.3911Z" fill="white"/>
</svg>
