<svg width="32" height="32" viewBox="0 0 32 32" fill="none" xmlns="http://www.w3.org/2000/svg">
<path d="M21.6879 19.006L19.3699 19C19.3882 18.8824 19.4003 18.7639 19.4059 18.645V16.669C19.4029 16.6419 19.3975 16.6152 19.3899 16.589C20.7087 15.8068 21.8012 14.6947 22.5597 13.3621C23.3182 12.0295 23.7167 10.5223 23.7159 8.989V6.406C23.7159 5.97609 23.6727 5.54726 23.5869 5.126C23.5166 4.79134 23.4193 4.46293 23.2959 4.144C23.2789 4.098 23.2639 4.051 23.2449 4.006C23.1246 3.71249 22.9825 3.42837 22.8199 3.156C22.7889 3.104 22.7579 3.056 22.7259 3.002C22.5581 2.73495 22.371 2.4806 22.1659 2.241C22.1369 2.208 22.1069 2.176 22.0769 2.141C21.6225 1.63255 21.0902 1.19949 20.4999 0.858L20.4559 0.832C20.1632 0.66715 19.8579 0.525709 19.5429 0.409L19.4299 0.368C19.1178 0.257443 18.7975 0.171514 18.4719 0.111C18.4289 0.1 18.3859 0.1 18.3419 0.091C18.0009 0.032802 17.6558 0.00236878 17.3099 0H14.6899C12.9916 0.00211696 11.3634 0.677713 10.1625 1.87861C8.96162 3.07951 8.28603 4.70767 8.28391 6.406V8.993C8.28913 10.9693 8.95827 12.8866 10.1839 14.437C10.1979 14.472 10.2299 14.489 10.2499 14.519C10.9067 15.343 11.706 16.0424 12.6099 16.584C12.6023 16.6102 12.5969 16.6369 12.5939 16.664V18.642C12.5994 18.7619 12.6115 18.8814 12.6299 19H10.3129C8.63917 19.0019 7.03451 19.6676 5.85099 20.8511C4.66748 22.0346 4.00176 23.6393 3.99991 25.313V29.563C4.0007 30.2093 4.25785 30.8288 4.71492 31.2857C5.17199 31.7426 5.79165 31.9995 6.43791 32H25.5629C26.209 31.9992 26.8284 31.7422 27.2853 31.2853C27.7421 30.8285 27.9991 30.2091 27.9999 29.563V25.318C27.9981 23.6445 27.3325 22.0401 26.1491 20.8568C24.9658 19.6735 23.3614 19.0079 21.6879 19.006ZM22.7159 8.993C22.7121 10.6613 22.175 12.2847 21.1829 13.626L19.4899 12.99C19.4899 12.956 19.4999 12.925 19.4999 12.89V10.63L22.7159 8.79V8.993ZM9.29991 6.113C9.31586 5.80222 9.35869 5.4934 9.42791 5.19C9.43691 5.149 9.44891 5.109 9.45891 5.068C9.5342 4.77233 9.63457 4.48362 9.75891 4.205C9.77491 4.17 9.79291 4.135 9.80891 4.105C9.93824 3.83037 10.0904 3.56711 10.2639 3.318C10.2839 3.289 10.3059 3.262 10.3269 3.234C10.5071 2.9869 10.7078 2.75542 10.9269 2.542C10.9489 2.521 10.9729 2.501 10.9949 2.48C11.2197 2.26672 11.4622 2.07302 11.7199 1.901C11.7409 1.887 11.7639 1.875 11.7859 1.861C12.0526 1.68852 12.334 1.53995 12.6269 1.417L12.6809 1.397C12.9864 1.27274 13.3028 1.177 13.6259 1.111H13.6569C13.9969 1.04093 14.3428 1.00376 14.6899 1H17.3099C17.5721 1.0018 17.8338 1.02286 18.0929 1.063C18.1419 1.07 18.1929 1.077 18.2379 1.085C18.491 1.12811 18.7406 1.18926 18.9849 1.268L19.0319 1.285C19.274 1.36816 19.51 1.46841 19.7379 1.585L19.7909 1.611C20.0203 1.73051 20.2408 1.86618 20.4509 2.017L20.5279 2.075C20.9368 2.3793 21.3011 2.73948 21.6099 3.145C21.6409 3.186 21.6729 3.227 21.7029 3.269C21.8455 3.46669 21.9744 3.67383 22.0889 3.889C22.1089 3.926 22.1249 3.966 22.1439 4.004C22.2459 4.2081 22.3348 4.41853 22.4099 4.634C22.4189 4.66 22.4289 4.684 22.4379 4.71C21.9727 4.7162 21.5087 4.76102 21.0509 4.844C20.5324 4.93647 20.0247 5.0819 19.5359 5.278C19.1612 5.44357 18.7583 5.53622 18.3489 5.551C16.8076 5.5074 15.3457 4.85731 14.2809 3.742C14.1869 3.65615 14.0637 3.60939 13.9364 3.61125C13.8091 3.61311 13.6874 3.66345 13.5959 3.752C12.8841 4.44447 12.064 5.016 11.1679 5.444C10.5704 5.7505 9.94487 5.99897 9.29991 6.186V6.113ZM9.28391 7.2C10.0875 7.00875 10.8651 6.72135 11.5999 6.344C12.4544 5.93659 13.2472 5.41075 13.9549 4.782C15.1592 5.90401 16.74 6.53439 18.3859 6.549C18.9046 6.53022 19.4152 6.41527 19.8919 6.21C20.3229 6.03549 20.771 5.90679 21.2289 5.826C21.7045 5.74616 22.1868 5.71267 22.6689 5.726C22.6994 5.95276 22.7154 6.18121 22.7169 6.41V7.638L19.3169 9.583C19.176 9.2938 18.9568 9.0499 18.6842 8.87897C18.4116 8.70805 18.0966 8.61694 17.7749 8.616H14.2249C13.9019 8.61702 13.5858 8.7089 13.3125 8.88114C13.0393 9.05339 12.8201 9.29903 12.6799 9.59L9.28391 7.7V7.2ZM18.4999 10.34V12.891C18.4996 13.0832 18.4232 13.2675 18.2873 13.4034C18.1514 13.5393 17.9671 13.6157 17.7749 13.616C17.5827 13.6157 18.6772 13.6776 18.5413 13.5416C18.4054 13.4057 18.5002 13.0832 18.4999 12.891V10.34C18.5002 10.1478 18.1519 9.69211 18.2876 9.82799C18.1519 9.69211 17.5837 9.61526 17.7759 9.615C17.9679 9.61553 18.1519 9.69211 18.2876 9.82799C18.4233 9.96387 18.4996 10.148 18.4999 10.34ZM9.28391 8.993V8.841L12.4999 10.633V12.89C12.4999 12.926 12.5079 12.959 12.5099 12.99L10.8349 13.646C9.83231 12.3015 9.28856 10.6702 9.28391 8.993ZM11.5189 14.456L12.8589 13.932C13.0185 14.1435 13.2248 14.3152 13.4618 14.4337C13.6988 14.5522 13.96 14.6143 14.2249 14.615H17.7759C18.0417 14.6143 18.3037 14.5518 18.5413 14.4326C18.7788 14.3134 18.9855 14.1407 19.1449 13.928L20.5009 14.438C19.7772 15.1945 18.9091 15.798 17.9479 16.213C17.3318 16.4741 16.6695 16.6086 16.0004 16.6086C15.3313 16.6086 14.669 16.4741 14.0529 16.213C13.1002 15.8015 12.2388 15.2036 11.5189 14.456ZM18.4059 17.1V18.648C18.4059 19.2861 18.1524 19.8981 17.7012 20.3493C17.25 20.8005 16.638 21.054 15.9999 21.054C15.3618 21.054 14.7498 20.8005 14.2986 20.3493C13.8474 19.8981 13.5939 19.2861 13.5939 18.648V17.1C13.6169 17.11 13.6369 17.124 13.6599 17.134C14.4001 17.4479 15.1959 17.6096 15.9999 17.6096C16.8039 17.6096 17.5997 17.4479 18.3399 17.134C18.3629 17.123 18.3829 17.109 18.4059 17.1ZM26.9999 29.563C26.9994 29.944 26.8478 30.3092 26.5784 30.5785C26.3091 30.8479 25.9439 30.9995 25.5629 31H22.9999V25.5C22.9999 25.3674 22.9472 25.2402 22.8535 25.1464C22.7597 25.0527 22.6325 25 22.4999 25C22.3673 25 22.2401 25.0527 22.1464 25.1464C22.0526 25.2402 21.9999 25.3674 21.9999 25.5V31H9.99991V25.5C9.99991 25.3674 9.94723 25.2402 9.85346 25.1464C9.7597 25.0527 9.63252 25 9.49991 25C9.3673 25 9.24012 25.0527 9.14636 25.1464C9.05259 25.2402 8.99991 25.3674 8.99991 25.5V31H6.43791C6.05678 30.9997 5.69133 30.8483 5.42174 30.5789C5.15214 30.3095 5.00044 29.9441 4.99991 29.563V25.313C5.00123 23.9043 5.56142 22.5537 6.55751 21.5576C7.55361 20.5615 8.90422 20.0013 10.3129 20H12.8779C13.1409 20.6098 13.5767 21.1292 14.1315 21.4941C14.6863 21.859 15.3358 22.0535 15.9999 22.0535C16.664 22.0535 17.3135 21.859 17.8683 21.4941C18.4231 21.1292 18.8589 20.6098 19.1219 20L21.6869 20.005C23.0956 20.0063 24.4462 20.5665 25.4423 21.5626C26.4384 22.5587 26.9986 23.9093 26.9999 25.318V29.563Z" fill="white"/>
</svg>
