<svg width="248" height="248" viewBox="0 0 248 248" fill="none" xmlns="http://www.w3.org/2000/svg">
<g clip-path="url(#clip0)">
<path d="M123.997 0C90.8772 0 59.7377 12.896 36.3172 36.3204C12.8967 59.7409 -0.00317383 90.8765 -0.00317383 123.996C-0.00317383 157.12 12.8967 188.255 36.3172 211.68C59.7377 235.1 90.8772 247.996 123.997 247.996C157.12 247.996 188.26 235.1 211.68 211.68C235.101 188.255 248.001 157.12 248.001 123.996C248.001 90.8765 235.101 59.7409 211.68 36.3204C188.26 12.896 157.12 0 123.997 0ZM206.201 206.2C184.245 228.156 155.051 240.246 123.997 240.246C92.9465 240.246 63.7522 228.156 41.7965 206.2C19.8407 184.241 7.74683 155.05 7.74683 123.996C7.74683 92.9458 19.8407 63.7554 41.7965 41.7996C63.7522 19.84 92.9465 7.75 123.997 7.75C155.051 7.75 184.245 19.84 206.201 41.7996C228.157 63.7554 240.251 92.9458 240.251 123.996C240.251 155.05 228.157 184.241 206.201 206.2V206.2Z" fill="white"/>
<path d="M124 104.625C121.454 104.619 118.932 105.117 116.58 106.091C114.229 107.066 112.093 108.497 110.298 110.302C106.64 113.956 104.625 118.819 104.625 123.996C104.625 129.173 106.64 134.04 110.298 137.698C113.956 141.356 118.823 143.375 124 143.375C129.173 143.375 134.04 141.356 137.698 137.698C141.356 134.04 143.371 129.173 143.371 123.996C143.371 118.819 141.356 113.956 137.698 110.302C135.903 108.497 133.769 107.066 131.418 106.092C129.066 105.117 126.545 104.619 124 104.625ZM132.219 132.219C127.828 136.613 120.175 136.605 115.777 132.219C114.695 131.141 113.837 129.86 113.253 128.448C112.669 127.037 112.37 125.524 112.375 123.996C112.375 120.892 113.584 117.974 115.777 115.781C116.854 114.698 118.136 113.839 119.547 113.254C120.959 112.669 122.472 112.371 124 112.375C127.104 112.375 130.026 113.584 132.219 115.781C134.412 117.978 135.621 120.892 135.621 123.996C135.621 127.104 134.416 130.026 132.219 132.219Z" fill="white"/>
<path d="M58.826 54.316L53.2964 53.2969L54.3155 58.8265C54.9278 62.1668 69.5791 140.825 88.3768 159.619C97.8899 169.132 110.542 174.375 123.996 174.375C137.45 174.375 150.102 169.132 159.615 159.619C164.307 154.952 168.028 149.401 170.561 143.288C173.095 137.174 174.391 130.618 174.375 124C174.375 110.542 169.132 97.8942 159.615 88.3772C140.821 69.5835 62.1663 54.9283 58.826 54.316V54.316ZM154.136 154.136C146.083 162.188 135.381 166.621 123.996 166.621C112.611 166.621 101.908 162.184 93.856 154.136C80.7275 141.011 68.0563 88.3269 63.011 63.0076C88.3225 68.0568 141.011 80.728 154.139 93.8526C158.109 97.8036 161.256 102.502 163.399 107.677C165.542 112.851 166.639 118.399 166.625 124C166.625 135.385 162.188 146.088 154.136 154.136Z" fill="white"/>
</g>
<defs>
<clipPath id="clip0">
<rect width="248" height="248" fill="white"/>
</clipPath>
</defs>
</svg>
