<svg width="2000" height="2000" viewBox="0 0 2000 2000" fill="none" xmlns="http://www.w3.org/2000/svg">
<path d="M1271.34 1190.58V323.635C1271.34 229.051 1194.39 152.102 1099.8 152.102H1072.21C977.629 152.102 900.68 229.051 900.68 323.635V1190.58C795.717 1254.93 731.244 1369.25 731.244 1493.13C731.244 1541.01 740.629 1587.48 759.137 1631.23C777.005 1673.48 802.582 1711.42 835.151 1743.99C867.723 1776.56 905.66 1802.14 947.908 1820.01C991.666 1838.51 1038.13 1847.9 1086.01 1847.9C1133.89 1847.9 1180.35 1838.51 1224.11 1820.01C1266.36 1802.14 1304.29 1776.56 1336.87 1743.99C1369.44 1711.42 1395.01 1673.48 1412.88 1631.23C1431.39 1587.48 1440.77 1541.01 1440.77 1493.13C1440.77 1369.25 1376.3 1254.93 1271.34 1190.58ZM1086.01 1787.9C923.475 1787.9 791.244 1655.67 791.244 1493.13C791.244 1385.18 850.18 1285.96 945.049 1234.2C954.685 1228.94 960.68 1218.84 960.68 1207.86V323.635C960.68 262.136 1010.71 212.102 1072.21 212.102H1099.8C1161.3 212.102 1211.34 262.136 1211.34 323.635V1207.86C1211.34 1218.84 1217.33 1228.94 1226.97 1234.2C1321.84 1285.96 1380.77 1385.18 1380.77 1493.13C1380.77 1655.67 1248.54 1787.9 1086.01 1787.9Z" fill="white"/>
<path d="M1111.06 1314.8V318.231C1111.06 301.663 1097.63 288.231 1081.06 288.231C1064.49 288.231 1051.06 301.663 1051.06 318.231V1314.8C963.578 1329.17 896.62 1405.3 896.62 1496.78C896.62 1598.48 979.359 1681.22 1081.06 1681.22C1182.76 1681.22 1265.5 1598.48 1265.5 1496.78C1265.5 1405.3 1198.54 1329.17 1111.06 1314.8ZM1081.06 1621.22C1012.44 1621.22 956.62 1565.4 956.62 1496.78C956.62 1428.17 1012.44 1372.35 1081.06 1372.35C1149.67 1372.35 1205.5 1428.17 1205.5 1496.78C1205.5 1565.4 1149.67 1621.22 1081.06 1621.22ZM679.808 437.978H787.373C803.941 437.978 817.373 424.546 817.373 407.978C817.373 391.409 803.941 377.978 787.373 377.978H679.808C663.239 377.978 649.808 391.409 649.808 407.978C649.808 424.546 663.239 437.978 679.808 437.978ZM589.227 562.527H787.373C803.941 562.527 817.373 549.096 817.373 532.527C817.373 515.959 803.941 502.527 787.373 502.527H589.227C572.658 502.527 559.227 515.959 559.227 532.527C559.227 549.096 572.658 562.527 589.227 562.527ZM787.373 627.076H679.808C663.239 627.076 649.808 640.508 649.808 657.076C649.808 673.645 663.239 687.076 679.808 687.076H787.373C803.941 687.076 817.373 673.645 817.373 657.076C817.373 640.508 803.941 627.076 787.373 627.076ZM589.227 811.626H787.373C803.941 811.626 817.373 798.194 817.373 781.626C817.373 765.058 803.941 751.626 787.373 751.626H589.227C572.658 751.626 559.227 765.058 559.227 781.626C559.227 798.194 572.658 811.626 589.227 811.626ZM787.373 876.176H679.808C663.239 876.176 649.808 889.607 649.808 906.176C649.808 922.744 663.239 936.176 679.808 936.176H787.373C803.941 936.176 817.373 922.744 817.373 906.176C817.373 889.607 803.941 876.176 787.373 876.176ZM817.373 1030.72C817.373 1014.16 803.941 1000.72 787.373 1000.72H589.227C572.658 1000.72 559.227 1014.16 559.227 1030.72C559.227 1047.29 572.658 1060.72 589.227 1060.72H787.373C803.941 1060.72 817.373 1047.29 817.373 1030.72Z" fill="white"/>
</svg>
