<svg width="257" height="257" viewBox="0 0 257 257" fill="none" xmlns="http://www.w3.org/2000/svg">
<g clip-path="url(#clip0)">
<path d="M254.473 128.696C240.407 110.983 189.821 53.2081 128.503 53.2081C67.1853 53.2081 16.5994 110.983 2.53324 128.696C-0.853047 132.968 -0.853047 138.959 2.58534 143.283C4.56502 145.784 7.53453 147.399 10.7124 147.66C13.9424 147.972 17.0161 146.93 19.4126 144.846C22.2779 142.346 25.6121 139.585 29.2589 136.667C44.0023 153.963 82.6581 193.348 128.451 193.348C174.244 193.348 212.9 153.963 227.643 136.667C231.29 139.532 234.624 142.294 237.49 144.846C239.626 146.722 242.335 147.712 245.148 147.712C245.512 147.712 245.877 147.712 246.242 147.66C249.42 147.399 252.389 145.784 254.369 143.283C257.859 139.011 257.859 133.02 254.473 128.696ZM128.503 182.929C87.3989 182.929 51.7126 146.826 37.6465 130.416C52.1814 119.996 70.9363 109.16 92.0876 102.804C88.3366 109.16 86.2527 116.401 86.2527 124.06C86.2527 147.347 105.216 166.31 128.503 166.31C151.79 166.31 170.754 147.347 170.754 124.06C170.754 116.401 168.67 109.16 164.919 102.804C186.122 109.16 204.825 120.048 219.36 130.468C205.294 146.826 169.66 182.929 128.503 182.929ZM147.831 98.7928C155.75 104.888 160.334 114.057 160.334 124.06C160.334 141.616 146.06 155.891 128.503 155.891C110.947 155.891 96.6721 141.616 96.6721 124.06C96.6721 114.057 101.257 104.888 109.175 98.7928C115.479 97.7509 121.939 97.1257 128.503 97.1257C135.067 97.1257 141.527 97.7509 147.831 98.7928ZM246.294 136.771C245.981 137.136 245.565 137.24 245.356 137.292C245.096 137.292 244.731 137.292 244.418 136.98C222.955 118.225 179.35 86.7063 128.503 86.7063C77.6047 86.7063 33.9997 118.225 12.5879 136.98C12.2753 137.24 11.9107 137.292 11.6502 137.292C11.4418 137.292 11.025 137.188 10.7124 136.771C10.3478 136.302 10.2957 135.625 10.7124 135.156C24.0492 118.381 71.874 63.5754 128.503 63.5754C185.132 63.5754 233.009 118.329 246.294 135.156C246.711 135.677 246.659 136.302 246.294 136.771Z" fill="#FFFBFB"/>
<path d="M111.071 129.154C111.071 138.78 118.874 146.584 128.5 146.584C138.126 146.584 145.929 138.78 145.929 129.154C145.929 119.575 138.126 111.772 128.5 111.772C118.874 111.772 111.071 119.575 111.071 129.154ZM136.584 129.154C136.584 133.593 132.986 137.238 128.5 137.238C124.061 137.238 120.416 133.593 120.416 129.154C120.416 124.715 124.014 121.117 128.5 121.117C132.939 121.117 136.584 124.715 136.584 129.154Z" fill="white"/>
</g>
<defs>
<clipPath id="clip0">
<rect width="257" height="257" fill="white"/>
</clipPath>
</defs>
</svg>
